<svg xmlns="http://www.w3.org/2000/svg" viewBox="0 0 256 256" role="img" aria-label="Default profile avatar">
  <defs>
    <linearGradient id="bg" x1="0" y1="0" x2="1" y2="1">
      <stop offset="0%" stop-color="#1d4ed8" />
      <stop offset="100%" stop-color="#0f172a" />
    </linearGradient>
  </defs>
  <rect width="256" height="256" rx="128" fill="url(#bg)" />
  <circle cx="128" cy="104" r="46" fill="#e2e8f0" opacity="0.95" />
  <path d="M56 214c12-40 42-60 72-60s60 20 72 60" fill="#e2e8f0" opacity="0.95" />
  <path d="M128 78c-16 0-28 12-28 28s12 28 28 28 28-12 28-28-12-28-28-28zm0 16c7 0 12 5 12 12s-5 12-12 12-12-5-12-12 5-12 12-12z" fill="#0f172a" opacity="0.35" />
</svg>
